<svg width="21" height="20" viewBox="0 0 21 20" fill="none" xmlns="http://www.w3.org/2000/svg">
<path d="M18.49 8.36791H17.807V8.33333H10.1754V11.6667H14.9677C14.2685 13.6071 12.3899 15 10.1754 15C7.36575 15 5.08772 12.7612 5.08772 10C5.08772 7.23875 7.36575 5 10.1754 5C11.4724 5 12.6523 5.48083 13.5507 6.26625L15.9492 3.90916C14.4347 2.52208 12.409 1.66666 10.1754 1.66666C5.49262 1.66666 1.69591 5.39791 1.69591 10C1.69591 14.6021 5.49262 18.3333 10.1754 18.3333C14.8583 18.3333 18.655 14.6021 18.655 10C18.655 9.44125 18.5965 8.89583 18.49 8.36791Z" fill="#FFC107"/>
<path d="M2.6736 6.12125L5.45955 8.12916C6.21338 6.295 8.03902 5 10.1754 5C11.4724 5 12.6523 5.48083 13.5507 6.26625L15.9492 3.90916C14.4347 2.52208 12.409 1.66666 10.1754 1.66666C6.91845 1.66666 4.09392 3.47375 2.6736 6.12125Z" fill="#FF3D00"/>
<path d="M10.1754 18.3333C12.3657 18.3333 14.3558 17.5096 15.8605 16.17L13.2361 13.9875C12.3562 14.6452 11.2809 15.0009 10.1754 15C7.96991 15 6.09721 13.6179 5.39171 11.6892L2.62653 13.7829C4.0299 16.4817 6.87987 18.3333 10.1754 18.3333Z" fill="#4CAF50"/>
<path d="M18.49 8.36792H17.807V8.33334H10.1754V11.6667H14.9676C14.6332 12.5902 14.0308 13.3972 13.2349 13.9879L13.2361 13.9871L15.8605 16.1696C15.6748 16.3354 18.655 14.1667 18.655 10C18.655 9.44125 18.5965 8.89584 18.49 8.36792Z" fill="#1976D2"/>
</svg>
