<svg width="106" height="20" viewBox="0 0 106 20" fill="none" xmlns="http://www.w3.org/2000/svg">
<path d="M27.8769 11.34V17H25.2169V7.16H27.7969V8.38C28.3969 7.36 29.5769 6.9 30.6369 6.9C33.0769 6.9 34.1969 8.64 34.1969 10.8V17H31.5369V11.26C31.5369 10.16 30.9969 9.3 29.7169 9.3C28.5569 9.3 27.8769 10.2 27.8769 11.34ZM38.8366 10.96H43.2366C43.1966 9.98 42.5566 9.02 41.0366 9.02C39.6566 9.02 38.8966 10.06 38.8366 10.96ZM43.4966 13.52L45.7166 14.18C45.2166 15.88 43.6566 17.3 41.2366 17.3C38.5366 17.3 36.1566 15.36 36.1566 12.04C36.1566 8.9 38.4766 6.86 40.9966 6.86C44.0366 6.86 45.8566 8.8 45.8566 11.96C45.8566 12.34 45.8166 12.74 45.8166 12.78H38.7766C38.8366 14.08 39.9366 15.02 41.2566 15.02C42.4966 15.02 43.1766 14.4 43.4966 13.52ZM54.2741 17C54.2341 16.8 54.1941 16.34 54.1941 15.94C53.6541 16.86 52.5141 17.26 51.4741 17.26C49.0941 17.26 47.7341 15.52 47.7341 13.38V7.16H50.3941V12.84C50.3941 13.94 50.9541 14.82 52.1941 14.82C53.3741 14.82 54.0541 14.02 54.0541 12.88V7.16H56.7141V15.22C56.7141 15.98 56.7741 16.66 56.8141 17H54.2741ZM62.8328 4.22V7.16H64.8128V9.52H62.8328V13.64C62.8328 14.5 63.2328 14.78 63.9928 14.78C64.3128 14.78 64.6728 14.74 64.8128 14.7V16.9C64.5728 17 64.0928 17.14 63.3128 17.14C61.3928 17.14 60.1928 16 60.1928 14.1V9.52H58.4128V7.16H58.9128C59.9528 7.16 60.4328 6.48 60.4328 5.6V4.22H62.8328ZM72.9356 7.12V9.8C72.6356 9.74 72.3756 9.72 72.1356 9.72C70.7756 9.72 69.5956 10.38 69.5956 12.5V17H66.9356V7.16H69.5156V8.62C70.1156 7.32 71.4756 7.08 72.3156 7.08C72.5356 7.08 72.7356 7.1 72.9356 7.12ZM74.2653 14.32C74.2653 12.56 75.5653 11.58 77.2053 11.34L79.6253 10.98C80.1853 10.9 80.3653 10.62 80.3653 10.28C80.3653 9.58 79.8253 9 78.7053 9C77.5453 9 76.9053 9.74 76.8253 10.6L74.4653 10.1C74.6253 8.56 76.0453 6.86 78.6853 6.86C81.8053 6.86 82.9653 8.62 82.9653 10.6V15.44C82.9653 15.96 83.0253 16.66 83.0853 17H80.6453C80.5853 16.74 80.5453 16.2 80.5453 15.82C80.0453 16.6 79.1053 17.28 77.6453 17.28C75.5453 17.28 74.2653 15.86 74.2653 14.32ZM78.2053 15.3C79.3253 15.3 80.3653 14.76 80.3653 13.02V12.58L78.1453 12.92C77.4653 13.02 76.9253 13.4 76.9253 14.16C76.9253 14.74 77.3453 15.3 78.2053 15.3ZM84.988 14.32C84.988 12.56 86.288 11.58 87.928 11.34L90.348 10.98C90.908 10.9 91.088 10.62 91.088 10.28C91.088 9.58 90.548 9 89.428 9C88.268 9 87.628 9.74 87.548 10.6L85.188 10.1C85.348 8.56 86.768 6.86 89.408 6.86C92.528 6.86 93.688 8.62 93.688 10.6V15.44C93.688 15.96 93.748 16.66 93.808 17H91.368C91.308 16.74 91.268 16.2 91.268 15.82C90.768 16.6 89.828 17.28 88.368 17.28C86.268 17.28 84.988 15.86 84.988 14.32ZM88.928 15.3C90.048 15.3 91.088 14.76 91.088 13.02V12.58L88.868 12.92C88.188 13.02 87.648 13.4 87.648 14.16C87.648 14.74 88.068 15.3 88.928 15.3ZM99.0292 17H96.3692V2.52H99.0292V17Z" fill="#1E1E1F"/>
<path d="M9.91541 0C4.43219 0 0 4.47 0 10C0 15.53 4.43219 20 9.91541 20C15.3986 20 19.8308 15.53 19.8308 10C19.8308 4.47 15.3986 0 9.91541 0ZM9.91541 18C5.5328 18 1.98308 14.42 1.98308 10C1.98308 5.58 5.5328 2 9.91541 2C14.298 2 17.8477 5.58 17.8477 10C17.8477 14.42 14.298 18 9.91541 18Z" fill="#1E1E1F"/>
</svg>
