<svg width="454" height="313" viewBox="0 0 454 313" fill="none" xmlns="http://www.w3.org/2000/svg">
<path d="M193.66 309.051C193.66 309.496 194.018 309.854 194.464 309.854H361.5C361.945 309.854 362.304 309.496 362.304 309.051C362.304 308.835 362.222 308.645 362.087 308.504H301.485C300.194 308.504 298.931 308.416 297.688 308.247H194.464C194.018 308.247 193.66 308.605 193.66 309.051Z" fill="#3F3D56"/>
<path d="M112.958 166.841H205.949C221.703 166.841 234.474 179.612 234.474 195.366V269.96C234.474 285.714 221.703 298.485 205.949 298.485H112.958C97.2043 298.485 84.4333 285.714 84.4333 269.96V195.366C84.4333 179.612 97.2043 166.841 112.958 166.841Z" fill="white"/>
<path d="M83.7578 269.96V195.366C83.7578 179.265 96.8571 166.165 112.958 166.165H205.949C222.05 166.165 235.149 179.265 235.149 195.366V269.96C235.149 286.061 222.05 299.16 205.949 299.16H112.958C96.8571 299.16 83.7578 286.061 83.7578 269.96ZM112.958 167.516C97.6019 167.516 85.1087 180.01 85.1087 195.366V269.96C85.1087 285.316 97.6019 297.809 112.958 297.809H205.949C221.305 297.809 233.798 285.316 233.798 269.96V195.366C233.798 180.01 221.305 167.516 205.949 167.516H112.958Z" fill="#3F3D56"/>
<path d="M147.725 199.501H168.553L146.931 263.565C146.476 264.915 145.21 265.824 143.785 265.824H127.576C125.744 265.824 124.26 264.34 124.259 262.509C124.259 262.148 124.318 261.79 124.433 261.449L144.578 201.76C145.033 200.41 146.3 199.501 147.725 199.501L147.725 199.501Z" fill="url(#paint0_linear_460_49)"/>
<path d="M177.992 242.471H144.963C144.118 242.47 143.433 243.154 143.432 243.998C143.432 244.423 143.608 244.828 143.919 245.118L165.142 264.927C165.76 265.504 166.574 265.824 167.419 265.824H186.121L177.992 242.471Z" fill="#0078D4"/>
<path d="M147.725 199.501C146.283 199.496 145.005 200.429 144.571 201.804L124.458 261.394C123.841 263.116 124.736 265.012 126.457 265.63C126.819 265.759 127.2 265.825 127.584 265.824H144.213C145.473 265.599 146.515 264.713 146.94 263.504L150.951 251.684L165.278 265.047C165.878 265.543 166.631 265.818 167.41 265.824H186.043L177.871 242.471L154.048 242.477L168.629 199.501L147.725 199.501Z" fill="url(#paint1_linear_460_49)"/>
<path d="M174.328 201.757C173.873 200.409 172.609 199.501 171.186 199.501H147.973C149.396 199.501 150.66 200.409 151.115 201.757L171.26 261.448C171.846 263.183 170.914 265.065 169.179 265.651C168.837 265.766 168.479 265.825 168.118 265.825H191.332C193.164 265.824 194.648 264.339 194.647 262.507C194.647 262.147 194.589 261.789 194.473 261.448L174.328 201.757Z" fill="url(#paint2_linear_460_49)"/>
<path d="M29.2004 0.675278H122.191C137.945 0.675278 150.716 13.4464 150.716 29.2003V103.794C150.716 119.548 137.945 132.319 122.191 132.319H29.2004C13.4465 132.319 0.675514 119.548 0.675514 103.794V29.2003C0.675514 13.4464 13.4465 0.675278 29.2004 0.675278Z" fill="white"/>
<path d="M0 103.794V29.2005C0 13.0994 13.0994 0 29.2004 0H122.191C138.292 0 151.391 13.0994 151.391 29.2005V103.794C151.391 119.896 138.292 132.995 122.191 132.995H29.2004C13.0994 132.995 0 119.896 0 103.794ZM29.2004 1.35095C13.8441 1.35095 1.35093 13.8442 1.35093 29.2006V103.794C1.35093 119.151 13.8441 131.644 29.2004 131.644H122.191C137.547 131.644 150.04 119.151 150.04 103.794V29.2006C150.04 13.8442 137.547 1.35096 122.191 1.35096L29.2004 1.35095Z" fill="#3F3D56"/>
<path d="M57.1234 67.6387C57.1234 68.6861 57.2366 69.5355 57.4348 70.1583C57.6613 70.7811 57.9444 71.4605 58.3407 72.1966C58.4823 72.4231 58.5389 72.6496 58.5389 72.8477C58.5389 73.1308 58.369 73.4139 58.001 73.697L56.2175 74.886C55.9627 75.0559 55.7079 75.1408 55.4814 75.1408C55.1983 75.1408 54.9152 74.9993 54.6321 74.7445C54.2358 74.3198 53.8961 73.8669 53.613 73.4139C53.3299 72.9327 53.0468 72.3948 52.7354 71.7436C50.5272 74.3482 47.7528 75.6504 44.4123 75.6504C42.0342 75.6504 40.1375 74.971 38.7503 73.6121C37.3631 72.2532 36.6553 70.4413 36.6553 68.1765C36.6553 65.7702 37.5046 63.8168 39.2315 62.3447C40.9584 60.8725 43.2515 60.1365 46.1675 60.1365C47.13 60.1365 48.1208 60.2214 49.1683 60.363C50.2158 60.5045 51.2916 60.731 52.4239 60.9858V58.9192C52.4239 56.7676 51.971 55.2672 51.0934 54.3896C50.1875 53.5119 48.6587 53.0873 46.4789 53.0873C45.488 53.0873 44.4689 53.2005 43.4214 53.4553C42.3739 53.7101 41.3548 54.0215 40.3639 54.4179C39.911 54.616 39.5712 54.7293 39.3731 54.7859C39.1749 54.8425 39.0334 54.8708 38.9201 54.8708C38.5238 54.8708 38.3256 54.5877 38.3256 53.9932V52.606C38.3256 52.153 38.3822 51.8133 38.5238 51.6151C38.6653 51.417 38.9201 51.2188 39.3165 51.0206C40.3073 50.511 41.4963 50.0864 42.8835 49.7467C44.2707 49.3786 45.7428 49.2088 47.2998 49.2088C50.6687 49.2088 53.1317 49.9731 54.717 51.5019C56.2741 53.0306 57.0668 55.3521 57.0668 58.4662V67.6386L57.1234 67.6387ZM45.6296 71.9418C46.5638 71.9418 47.5263 71.772 48.5455 71.4322C49.5647 71.0925 50.4706 70.4697 51.2349 69.6204C51.6879 69.0825 52.0276 68.488 52.1975 67.8085C52.3673 67.1291 52.4806 66.3081 52.4806 65.3456V64.1565C51.6596 63.9584 50.782 63.7885 49.8761 63.6753C48.9701 63.562 48.0925 63.5054 47.2149 63.5054C45.3182 63.5054 43.931 63.8734 42.9968 64.6378C42.0625 65.4022 41.6096 66.478 41.6096 67.8935C41.6096 69.2241 41.9493 70.2149 42.657 70.8943C43.3365 71.6021 44.3273 71.9418 45.6296 71.9418ZM68.3624 74.9993C67.8529 74.9993 67.5131 74.9144 67.2867 74.7162C67.0602 74.5463 66.862 74.15 66.6921 73.6121L60.0393 51.7284C59.8695 51.1622 59.7845 50.7942 59.7845 50.596C59.7845 50.143 60.011 49.8882 60.464 49.8882H63.2383C63.7762 49.8882 64.1443 49.9732 64.3424 50.1714C64.5689 50.3412 64.7388 50.7376 64.9086 51.2754L69.6647 70.0167L74.081 51.2754C74.2226 50.7092 74.3924 50.3412 74.6189 50.1714C74.8454 50.0015 75.2417 49.8882 75.7513 49.8882H78.0161C78.554 49.8882 78.922 49.9732 79.1485 50.1714C79.375 50.3412 79.5732 50.7376 79.6864 51.2754L84.1594 70.2432L89.057 51.2754C89.2268 50.7092 89.425 50.3412 89.6232 50.1714C89.8497 50.0015 90.2177 49.8882 90.7273 49.8882H93.3601C93.813 49.8882 94.0678 50.1147 94.0678 50.596C94.0678 50.7375 94.0395 50.8791 94.0112 51.049C93.9829 51.2188 93.9263 51.4453 93.813 51.7567L86.9904 73.6404C86.8205 74.2066 86.6223 74.5746 86.3958 74.7445C86.1694 74.9143 85.8013 75.0276 85.3201 75.0276H82.8854C82.3475 75.0276 81.9795 74.9427 81.753 74.7445C81.5265 74.5463 81.3284 74.1783 81.2151 73.6121L76.8271 55.3521L72.4674 73.5838C72.3258 74.15 72.156 74.518 71.9295 74.7162C71.703 74.9143 71.3067 74.9993 70.7971 74.9993L68.3624 74.9993ZM104.741 75.7637C103.269 75.7637 101.796 75.5938 100.381 75.2541C98.9654 74.9143 97.8614 74.5463 97.1253 74.1217C96.6723 73.8669 96.3609 73.5838 96.2477 73.329C96.1345 73.0742 96.0778 72.7911 96.0778 72.5363V71.0925C96.0778 70.498 96.3043 70.2149 96.729 70.2149C96.8988 70.2149 97.0687 70.2432 97.2385 70.2998C97.4084 70.3564 97.6632 70.4697 97.9463 70.5829C98.9088 71.0076 99.9563 71.3473 101.06 71.5738C102.193 71.8003 103.297 71.9135 104.429 71.9135C106.213 71.9135 107.6 71.6021 108.563 70.9793C109.525 70.3564 110.035 69.4505 110.035 68.2898C110.035 67.4971 109.78 66.846 109.27 66.3081C108.761 65.7702 107.798 65.2889 106.411 64.836L102.306 63.562C100.239 62.9109 98.7107 61.9483 97.7764 60.6744C96.8422 59.4288 96.3609 58.0416 96.3609 56.5694C96.3609 55.3804 96.6157 54.333 97.1253 53.427C97.6349 52.5211 98.3143 51.7284 99.1636 51.1056C100.013 50.4545 100.975 49.9732 102.108 49.6335C103.24 49.2937 104.429 49.1522 105.675 49.1522C106.298 49.1522 106.949 49.1805 107.572 49.2654C108.223 49.3504 108.817 49.4636 109.412 49.5769C109.978 49.7184 110.516 49.86 111.025 50.0298C111.535 50.1997 111.931 50.3695 112.215 50.5394C112.611 50.7659 112.894 50.9924 113.064 51.2472C113.234 51.4736 113.319 51.7851 113.319 52.1814V53.512C113.319 54.1065 113.092 54.4179 112.667 54.4179C112.441 54.4179 112.073 54.3046 111.592 54.0782C109.978 53.3421 108.166 52.9741 106.156 52.9741C104.543 52.9741 103.269 53.2289 102.391 53.7668C101.513 54.3046 101.06 55.1256 101.06 56.2863C101.06 57.079 101.344 57.7585 101.91 58.2964C102.476 58.8343 103.523 59.3722 105.024 59.8534L109.044 61.1274C111.082 61.7785 112.554 62.6844 113.432 63.8451C114.309 65.0059 114.734 66.3364 114.734 67.8086C114.734 69.0259 114.479 70.13 113.998 71.0925C113.488 72.0551 112.809 72.9044 111.931 73.5838C111.054 74.2916 110.006 74.8012 108.789 75.1692C107.515 75.5655 106.184 75.7637 104.741 75.7637Z" fill="#252F3E"/>
<path fill-rule="evenodd" clip-rule="evenodd" d="M110.091 89.5224C100.777 96.4017 87.2451 100.054 75.6098 100.054C59.3033 100.054 44.6104 94.0237 33.5129 84.0019C32.6353 83.2092 33.428 82.1334 34.4755 82.7563C46.4789 89.7205 61.285 93.9387 76.6006 93.9387C86.9337 93.9387 98.286 91.7872 108.732 87.3708C110.289 86.6631 111.62 88.3899 110.091 89.5224Z" fill="#FF9900"/>
<path fill-rule="evenodd" clip-rule="evenodd" d="M113.97 85.106C112.781 83.5773 106.1 84.37 103.07 84.738C102.164 84.8512 102.023 84.0585 102.844 83.464C108.166 79.7271 116.914 80.8029 117.933 82.0485C118.952 83.3225 117.65 92.0703 112.667 96.2602C111.903 96.9113 111.167 96.5716 111.507 95.7223C112.639 92.9196 115.159 86.6064 113.97 85.106Z" fill="#FF9900"/>
<path d="M289.39 50.3537C288.715 49.6783 283.311 35.4934 283.311 35.4934L270.477 34.8179L264.605 48.6624L289.39 50.3537Z" fill="#FFB6B6"/>
<path d="M271.182 41.3529C280.723 41.3529 288.457 33.6184 288.457 24.0775C288.457 14.5366 280.723 6.80219 271.182 6.80219C261.641 6.80219 253.907 14.5366 253.907 24.0775C253.907 33.6184 261.641 41.3529 271.182 41.3529Z" fill="#FFB6B6"/>
<path d="M303.913 143.906L309.992 164.17L293.781 281.702H282.806L276.894 193.216L270.139 223.612L304.588 267.517L295.807 277.649L246.16 229.353L247.173 154.714L251.226 143.231L303.913 143.906Z" fill="#1E1E1F"/>
<path d="M285.665 38.269L284.316 38.3355C284.316 38.3355 283.11 27.5743 282.402 26.9329C281.694 26.2915 280.411 27.7072 280.411 27.7072C280.411 27.7072 274.848 24.5999 274.681 21.2266C274.515 17.8534 274.382 15.1548 272.358 15.2545C270.334 15.3542 258.998 18.6178 256.3 18.7508C253.601 18.8837 249.321 14.3606 253.844 10.08C258.367 5.79943 262.348 4.25072 262.99 3.54282C263.631 2.83492 267.854 -0.0782818 271.544 2.44512C275.233 4.96852 279.956 4.73586 279.956 4.73586C279.956 4.73586 288.826 6.32774 287.676 10.4421C286.526 14.5565 290.973 22.4529 289.148 26.6005C287.324 30.7481 285.665 38.269 285.665 38.269Z" fill="#1E1E1F"/>
<path d="M282.298 279.676L294.456 281.027L295.807 303.317C295.807 303.317 295.131 314.125 283.649 312.774C272.166 311.423 275.543 300.615 275.543 300.615L282.298 279.676Z" fill="#1E1E1F"/>
<path d="M298.171 263.802C298.171 263.802 306.952 259.749 308.303 264.478L311.005 273.934C311.005 273.934 311.005 283.391 311.68 284.066C312.356 284.742 325.19 302.304 313.707 311.761C313.707 311.761 307.628 312.436 304.25 302.979C300.873 293.523 290.741 284.066 290.741 284.066C290.741 284.066 288.778 279.338 292.124 279.676C295.469 280.013 300.197 271.908 298.847 269.206C297.496 266.504 298.171 263.802 298.171 263.802Z" fill="#1E1E1F"/>
<path d="M186.65 175.555C183.508 174.231 182.647 169.156 184.727 164.216C185.531 162.231 186.799 160.468 188.424 159.074L190.852 153.506L190.765 153.447L197.745 125.629C199.367 119.161 203.836 113.705 209.972 111.095C213.623 109.542 217.087 109.262 218.094 112.982C219.765 119.154 208.879 139.036 202.315 150.222L197.201 162.771C197.34 164.908 196.964 167.048 196.106 169.01C194.026 173.949 189.793 176.879 186.65 175.555Z" fill="#FFB6B6"/>
<path d="M265.073 46.3009L287.364 46.9764L308.979 56.4329L305.601 112.497C305.601 112.497 309.654 125.331 307.628 127.357C305.601 129.384 307.628 138.468 306.277 138.654C304.926 138.84 306.277 148.611 306.277 148.611C306.277 148.611 287.364 142.218 271.152 146.27C254.941 150.323 249.538 143.569 249.538 143.569C249.538 143.569 245.485 127.357 245.485 123.98V54.9171L265.073 46.3009Z" fill="#434CE6"/>
<path d="M249.2 54.7443C249.2 54.7443 239.743 52.0424 235.015 58.7971C230.287 65.5518 227.585 65.5518 227.585 74.3329C227.585 74.3329 199.891 113.51 201.242 117.563L194.825 128.033L211.036 136.814C211.036 136.814 216.777 131.072 216.777 125.669C216.777 120.265 232.989 105.405 232.989 105.405C232.989 105.405 247.173 87.1668 247.849 80.4121C248.524 73.6574 249.2 54.7443 249.2 54.7443Z" fill="#434CE6"/>
<path d="M332.485 178.999H425.475C441.229 178.999 454 191.77 454 207.524V282.118C454 297.872 441.229 310.643 425.475 310.643H332.485C316.731 310.643 303.96 297.872 303.96 282.118V207.524C303.96 191.77 316.731 178.999 332.485 178.999Z" fill="white"/>
<path d="M302.609 281.443V206.849C302.609 190.748 315.708 177.649 331.809 177.649H424.8C440.901 177.649 454 190.748 454 206.849V281.443C454 297.544 440.901 310.643 424.8 310.643H331.809C315.708 310.643 302.609 297.544 302.609 281.443ZM331.809 179C316.453 179 303.96 191.493 303.96 206.849V281.443C303.96 296.799 316.453 309.292 331.809 309.292H424.8C440.156 309.292 452.649 296.799 452.649 281.443V206.849C452.649 191.493 440.156 179 424.8 179H331.809Z" fill="#3F3D56"/>
<path d="M390.817 231.153H393.111L399.651 224.613L399.972 221.837C387.801 211.094 369.225 212.252 358.482 224.423C355.498 227.804 353.332 231.826 352.151 236.179C352.88 235.88 353.687 235.832 354.446 236.041L367.526 233.884C367.526 233.884 368.191 232.783 368.535 232.851C374.354 226.461 384.145 225.717 390.863 231.153L390.817 231.153Z" fill="#EA4335"/>
<path d="M408.968 236.179C407.464 230.643 404.378 225.667 400.087 221.86L390.908 231.039C394.784 234.206 396.992 238.976 396.898 243.981V245.61C401.409 245.61 405.067 249.267 405.067 253.779C405.067 258.291 401.409 261.948 396.898 261.948H380.559L378.93 263.6V273.399L380.559 275.028H396.898C408.632 275.119 418.22 265.68 418.311 253.945C418.366 246.832 414.859 240.164 408.968 236.179Z" fill="#4285F4"/>
<path d="M364.198 274.936H380.536V261.856H364.198C363.034 261.856 361.884 261.606 360.825 261.122L358.531 261.833L351.945 268.373L351.371 270.668C355.064 273.457 359.571 274.956 364.198 274.936Z" fill="#34A853"/>
<path d="M364.198 232.507C352.463 232.577 343.007 242.147 343.077 253.883C343.116 260.436 346.177 266.604 351.371 270.599L360.848 261.122C356.737 259.264 354.91 254.425 356.767 250.314C358.625 246.202 363.464 244.375 367.575 246.233C369.387 247.051 370.838 248.502 371.656 250.314L381.133 240.837C377.101 235.565 370.835 232.484 364.198 232.507Z" fill="#FBBC05"/>
<path d="M322.544 190.84C325.949 190.661 328.482 186.179 328.202 180.826C328.119 178.687 327.525 176.598 326.469 174.735L326.076 168.673L326.177 168.648L329.053 140.112C329.721 133.477 327.37 126.828 322.483 122.291C319.577 119.591 316.413 118.152 314.204 121.309C310.537 126.547 314.029 148.944 316.407 161.694L316.958 175.233C316.103 177.197 315.73 179.337 315.871 181.475C316.151 186.825 319.139 191.018 322.544 190.84Z" fill="#FFB6B6"/>
<path d="M304.709 55.971C304.709 55.971 314.521 56.639 316.676 64.5975C318.832 72.556 321.373 73.473 318.393 81.7329C318.393 81.7329 331.147 127.984 328.501 131.338L330.983 143.364L312.754 146.122C312.754 146.122 309.302 138.773 311.136 133.69C312.97 128.607 302.764 109.126 302.764 109.126C302.764 109.126 295.611 87.1569 297.268 80.5739C298.925 73.9908 304.709 55.971 304.709 55.971Z" fill="#434CE6"/>
<defs>
<linearGradient id="paint0_linear_460_49" x1="155.316" y1="204.416" x2="133.685" y2="268.319" gradientUnits="userSpaceOnUse">
<stop stop-color="#114A8B"/>
<stop offset="1" stop-color="#0669BC"/>
</linearGradient>
<linearGradient id="paint1_linear_460_49" x1="162.073" y1="234.196" x2="157.069" y2="235.888" gradientUnits="userSpaceOnUse">
<stop stop-opacity="0.3"/>
<stop offset="0.071" stop-opacity="0.2"/>
<stop offset="0.321" stop-opacity="0.1"/>
<stop offset="0.623" stop-opacity="0.05"/>
<stop offset="1" stop-opacity="0"/>
</linearGradient>
<linearGradient id="paint2_linear_460_49" x1="159.477" y1="202.494" x2="183.221" y2="265.753" gradientUnits="userSpaceOnUse">
<stop stop-color="#3CCBF4"/>
<stop offset="1" stop-color="#2892DF"/>
</linearGradient>
</defs>
</svg>
